<svg xmlns="http://www.w3.org/2000/svg" xmlns:xlink="http://www.w3.org/1999/xlink" id="a" width="79.7663" height="78.106" viewBox="0 0 79.7663 78.106"><defs><style>.d{fill:url(#c);}</style><linearGradient id="c" x1="0" y1="47.049" x2="58.9151" y2="47.049" gradientTransform="translate(0 80.012) scale(1 -1)" gradientUnits="userSpaceOnUse"><stop offset="0" stop-color="#204297"></stop><stop offset="1" stop-color="#ef4043"></stop></linearGradient></defs><g id="b"><path class="d" d="M50.1431,20.426c-.43,0-.84-.22-1.07-.61-.03-.05-1.6-2.61-5.72-5.71-4.14-3.12-7.04-3.92-7.07-3.93-.66-.18-1.06-.86-.88-1.52s.85-1.06,1.52-.89c.14,.04,3.36,.9,7.94,4.35s6.3,6.31,6.37,6.43c.35,.59,.15,1.36-.44,1.71-.2,.12-.42,.17-.63,.17h-.02Zm8.1-1.06c.61-.32,.85-1.07,.53-1.68-.11-.21-2.71-5.14-10.23-10.8C41.0231,1.216,35.5731,.076,35.3431,.026c-.67-.14-1.33,.3-1.47,.97-.14,.67,.3,1.33,.97,1.47,.05,.01,5.17,1.11,12.2,6.4,7.01,5.28,9.48,9.89,9.52,9.96,.22,.43,.66,.67,1.11,.67,.19,0,.39-.04,.57-.14v.01ZM20.2431,57.796c.35-.59,.16-1.36-.43-1.71-.03-.02-2.59-1.59-5.71-5.72-3.12-4.14-3.92-7.04-3.92-7.06-.17-.67-.86-1.07-1.52-.89-.67,.17-1.07,.85-.89,1.52,.04,.14,.9,3.36,4.35,7.94,3.45,4.57,6.31,6.3,6.43,6.37,.2,.12,.42,.17,.63,.17,.43,0,.84-.22,1.07-.61l-.01-.01Zm-.88,7.46c.32-.61,.08-1.36-.53-1.68-.05-.02-4.63-2.44-9.96-9.52-5.29-7.02-6.39-12.15-6.4-12.19-.14-.68-.79-1.11-1.47-.98-.68,.14-1.11,.79-.98,1.47,.05,.23,1.19,5.68,6.86,13.2,5.67,7.52,10.6,10.12,10.8,10.23,.18,.1,.38,.14,.57,.14,.45,0,.89-.25,1.11-.67Z"></path><path fill="#FFF" d="M58.3431,78.106h0c-3.16,0-6.42-.79-9.17-2.21-6.27-3.25-10.27-6.9-12.74-9.37-3.08-3.08-19-19.8-19.67-20.51-2.11-2.11-2.2-5.23-.19-7.24l.24-.24c.71-.71,1.59-1.19,2.54-1.41l-1.48-1.48c-2.06-2.06-2.06-5.42,0-7.48l.24-.24c.71-.71,1.59-1.19,2.54-1.41l-.73-.73c-1-1-1.54-2.32-1.54-3.74s.55-2.74,1.54-3.74l.24-.24c1.11-1.11,2.41-1.7,3.75-1.7,1.21,0,2.39,.49,3.44,1.43,.19-.94,.66-1.82,1.4-2.56l.24-.24c.99-1,2.32-1.54,3.74-1.54s2.74,.55,3.74,1.55l25.74,25.75-3.76-10.1c-1.06-2.11-.65-4.63,1.03-6.31,.38-.38,.81-.7,1.28-.95l.26-.16s.06-.04,.1-.06c.77-.4,1.64-.61,2.51-.61,2.05,0,3.91,1.12,4.85,2.93,.01,.03,.03,.05,.04,.08l9.39,21.85c.65,1.18,6.36,12.43-6.22,25.01-3.71,3.71-8.32,5.67-13.34,5.67h-.01ZM20.5531,39.486c-.75,0-1.45,.29-1.98,.81l-.24,.24c-1.16,1.16-.77,2.76,.21,3.74,.19,.2,16.59,17.43,19.65,20.49,2.35,2.35,6.16,5.83,12.12,8.92,1.39,.72,4.28,1.93,8.02,1.93h0c4.35,0,8.35-1.71,11.58-4.94,11.85-11.85,5.86-21.94,5.8-22.04-.03-.05-.06-.11-.08-.16l-9.4-21.86c-.52-.96-1.52-1.55-2.62-1.55-.46,0-.9,.1-1.31,.31l-.25,.16s-.06,.04-.1,.06c-.27,.14-.51,.31-.72,.53-.91,.91-1.13,2.33-.54,3.47,.02,.05,.04,.09,.06,.14l5.79,15.53c.2,.55,0,1.17-.49,1.48-.49,.32-1.14,.25-1.56-.17l-29.79-29.8c-.52-.52-1.23-.81-1.98-.81s-1.45,.29-1.97,.81l-.24,.24c-1.15,1.15-.99,2.93,.38,4.33l15.46,15.46c.49,.49,.49,1.28,0,1.76-.49,.49-1.28,.49-1.76,0L25.8831,19.856c-.65-.65-1.31-.97-1.96-.97-.84,0-1.54,.53-1.99,.97l-.24,.24c-.52,.52-.81,1.23-.81,1.97s.29,1.45,.81,1.97l18.62,18.62c.49,.49,.49,1.28,0,1.76-.49,.49-1.28,.49-1.76,0l-14.77-14.77c-.5-.48-1.19-.75-1.91-.75s-1.45,.29-1.98,.81l-.24,.24c-1.09,1.09-1.09,2.86,0,3.95l15.77,15.77c.49,.49,.49,1.28,0,1.76-.49,.49-1.28,.49-1.76,0l-11.18-11.18c-.5-.48-1.19-.75-1.92-.75l-.01-.01Z"></path></g></svg>
