<svg version="1.2" xmlns="http://www.w3.org/2000/svg" viewBox="0 0 863 827" width="863" height="827">
	<title>provisioning-svg</title>
	<style>
		.s0 { fill: #f2f2f2 } 
		.s1 { fill: #3f3d56 } 
		.s2 { opacity: .1;fill: #000000 } 
		.s3 { fill: #2f2e41 } 
		.s4 { fill: #ffb9b9 } 
		.s5 { fill: #d0cde1 } 
		.s6 { fill: #203890 } 
		.s7 { fill: #323043 } 
	</style>
	<path class="s0" d="m740.1 309.4c-44.9-176.6-200.1-304.1-382.3-309.2-96.3-2.7-197.7 29.2-271.4 141-131.9 199.8 8.1 337.8 105.7 403.5q17.6 11.9 34.4 25 16.8 13.1 32.7 27.3 15.8 14.2 30.6 29.5 14.8 15.3 28.5 31.6c65.9 78.3 192.8 175.5 343.8 23.2 109.5-110.5 107.9-254.3 78-371.9z"/>
	<path class="s1" d="m862 702.7c0 43.4-189.2 124-427.5 124-238.3 0-434.5-75.6-434.5-119 0-43.3 196.2-38 434.5-38 238.3 0 427.5-10.3 427.5 33z"/>
	<path class="s2" d="m862 702.7c0 43.4-189.2 124-427.5 124-238.3 0-434.5-75.6-434.5-119 0-43.3 196.2-38 434.5-38 238.3 0 427.5-10.3 427.5 33z"/>
	<path class="s1" d="m431.5 785.7c-238.6 0-431.5-35.1-431.5-78.5 0-43.4 192.9-78.5 431.5-78.5 238.6 0 431.5 35.1 431.5 78.5 0 43.4-192.9 78.5-431.5 78.5z"/>
	<path class="s3" d="m594.9 440.2v210l35.1 57.2 2.6 4.4h138.6l2.8-271.6h-179.1z"/>
	<path class="s2" d="m594.9 440.2v210l35.1 57.2 2.1-267.2h-37.2z"/>
	<path class="s3" d="m260.3 434.6v210l-35.1 57.2-2.6 4.4h-138.6l-2.8-271.6h179.1z"/>
	<path class="s2" d="m260.3 434.6v210l-35.1 57.2-2.1-267.2h37.2z"/>
	<path class="s3" d="m816 430.4v12.6h-753v-18.2l70-36.3h621.4l61.6 41.9z"/>
	<path class="s2" d="m816 430.4v12.6h-753v-18.2l753 5.6z"/>
	<path class="s2" d="m170.8 493.4h-33.6l-14-9.8h63l-15.4 9.8z"/>
	<path class="s2" d="m170.8 534h-33.6l-14-9.8h63l-15.4 9.8z"/>
	<path class="s2" d="m170.8 591.4h-33.6l-14-9.8h63l-15.4 9.8z"/>
	<path class="s2" d="m170.8 648.8h-33.6l-14-9.8h63l-15.4 9.8z"/>
	<path class="s2" d="m684.4 499h33.6l14-9.8h-63l15.4 9.8z"/>
	<path class="s2" d="m684.4 539.6h33.6l14-9.8h-63l15.4 9.8z"/>
	<path class="s2" d="m684.4 597h33.6l14-9.8h-63l15.4 9.8z"/>
	<path class="s2" d="m684.4 654.4h33.6l14-9.8h-63l15.4 9.8z"/>
	<path class="s1" d="m532.5 353.4l-4.7 29.8c0 0-22.9 12.2-6.8 12.6 16.2 0.4 92.3 0 92.3 0 0 0 14.7 0-8.6-12.9l-4.7-31.3z"/>
	<path class="s2" d="m517.8 395.5q1.1-1 2.4-1.9 1.2-0.9 2.5-1.7 1.2-0.8 2.5-1.6 1.3-0.8 2.6-1.5l4.7-29.8 67.5 0.1 4.7 29.4q1.4 0.7 2.8 1.5 1.4 0.8 2.8 1.7 1.3 0.9 2.6 1.9 1.3 0.9 2.6 2c3-0.7 6.3-3.3-10.8-12.7l-4.7-31.3-67.5 1.8-4.7 29.8c0 0-19.3 10.3-10 12.3z"/>
	<path class="s1" d="m424.5 145.7h282.8c5.9 0 10.7 4.8 10.7 10.7v190.5c0 5.9-4.8 10.7-10.7 10.7h-282.8c-5.9 0-10.7-4.8-10.7-10.7v-190.5c0-5.9 4.8-10.7 10.7-10.7z"/>
	<path class="s0" d="m424.1 157h283.7v158.7h-283.7z"/>
	<path class="s0" d="m565.9 153.8c-1 0-1.8-0.9-1.8-1.8 0-1 0.8-1.8 1.8-1.8 1 0 1.8 0.8 1.8 1.8 0 0.9-0.8 1.8-1.8 1.8z"/>
	<path class="s1" d="m718 328.3v18.6c0 1.4-0.3 2.8-0.8 4.1-0.5 1.3-1.3 2.4-2.3 3.4-1 1-2.2 1.8-3.5 2.3-1.3 0.6-2.7 0.9-4.1 0.9h-282.8c-1.4 0-2.8-0.3-4.1-0.9-1.3-0.5-2.5-1.3-3.4-2.3-1-1-1.8-2.1-2.4-3.4-0.5-1.3-0.8-2.7-0.8-4.1v-18.6z"/>
	<path class="s0" d="m565.9 349.8c-3.8 0-6.8-3-6.8-6.8 0-3.8 3-6.8 6.8-6.8 3.8 0 6.8 3 6.8 6.8 0 3.8-3 6.8-6.8 6.8z"/>
	<path class="s1" d="m555.3 415.2v3.6h-193.2v-2.9l0.2-0.7 4.8-12.9h184.2l4 12.9z"/>
	<path class="s1" d="m629.6 411.7c-0.3 1.5-1.6 3.1-4.6 4.6-10.8 5.4-32.7-1.5-32.7-1.5 0 0-16.9-2.8-16.9-10.4q0.2-0.1 0.4-0.2 0.1-0.1 0.3-0.2 0.2-0.2 0.4-0.3 0.2-0.1 0.4-0.2c4.5-2.4 19.5-8.3 46.2 0.3q0.7 0.2 1.4 0.6 0.7 0.3 1.3 0.7 0.7 0.4 1.2 0.9 0.6 0.5 1.1 1.1 0.5 0.5 0.8 1 0.3 0.5 0.5 1.1 0.2 0.6 0.3 1.2 0 0.7-0.1 1.3z"/>
	<path class="s2" d="m629.6 411.7c-13.2 5-24.9 5.4-37-3-6.1-4.2-11.6-5.2-15.7-5.2 4.5-2.4 19.5-8.3 46.2 0.3q0.7 0.2 1.4 0.6 0.7 0.3 1.3 0.7 0.7 0.4 1.2 0.9 0.6 0.5 1.1 1.1 0.5 0.5 0.8 1 0.3 0.5 0.5 1.1 0.2 0.6 0.3 1.2 0 0.7-0.1 1.3z"/>
	<path class="s0" d="m613.1 408.7c-2.6 0-4.7-0.6-4.7-1.4 0-0.8 2.1-1.4 4.7-1.4 2.6 0 4.7 0.6 4.7 1.4 0 0.8-2.1 1.4-4.7 1.4z"/>
	<path class="s2" d="m555.3 415.2v3.6h-193.2v-2.9l0.2-0.7h193z"/>
	<path class="s4" d="m394.6 194.1c-21.1 0-38.2-17.1-38.2-38.2 0-21.2 17.1-38.3 38.2-38.3 21.2 0 38.3 17.1 38.3 38.3 0 21.1-17.1 38.2-38.3 38.2z"/>
	<path class="s4" d="m366.5 175v60.4h62.4c0 0-8.1-50.3-4.1-65.4z"/>
	<path class="s5" d="m490.3 256.5c0 0-59.4-29.1-59.4-31.2 0-2-6.1-15.1-10.1-15.1-4 0-38.2-11-57.4 5.1l-2 13.1-73.4 48.3 20.1 73.4c0 0 13.1 14.1 9 24.2-4 10.1 3.1 61.4 3.1 61.4l158-5v-68.5c0 0 5-16.1 8-21.1 3-5 0-20.1 0-20.1l24.2-30.2c0 0-3-28.2-20.1-34.3z"/>
	<path class="s2" d="m290.5 301.3l4.5-24.6c0 0-26.2 113.7-23.2 126.8 3.1 13.1 25.2 33.2 28.2 34.2 3 1 31.2-86.5 31.2-86.5z"/>
	<path class="s5" d="m305.1 273.7l-17.1 3c0 0-26.2 113.7-23.2 126.8 3 13.1 25.2 33.2 28.2 34.2 3 1 31.2-86.5 31.2-86.5z"/>
	<path class="s2" d="m495.8 307.4l8.5-16.6c0 0 12.1 113.7 4.1 124.8-8.1 11-39.9 15.2-39.9 15.2l-0.4-82.7z"/>
	<path class="s5" d="m497.3 277.7l13.1 13.1c0 0 12.1 113.7 4 124.8-8 11-39.9 15.2-39.9 15.2l-0.3-82.7z"/>
	<path class="s1" d="m302 450.8c0 0-29.1-11.1-34.2 10.1-5 21.1 12.1 115.7 12.1 115.7 0 0 11.1 71.5 18.1 73.5 7.1 2 38.3 3 43.3-6.1 5-9-15.1-101.6-15.1-101.6l116.8-2c0 0-7.1 80.5-11.1 87.5-4 7.1-4 31.2 0 31.2 4 0 48.3-2 51.3-8 3-6.1 20.1-141.9 20.1-141.9 0 0 14.1-47.3-2-44.3-16.1 3-199.3-14.1-199.3-14.1z"/>
	<path class="s3" d="m474.2 647.1c0 0 10-7.1 15 0 5.1 7 7.1 15.1-15 27.1-22.2 12.1-39.3 9.1-39.3 7.1v-29.2z"/>
	<path class="s3" d="m300 644c0 0-10-7-15.1 0-5 7.1-7 15.1 15.1 27.2 22.2 12.1 39.3 9.1 39.3 7.1v-29.2z"/>
	<path class="s3" d="m394.9 107.7q-1.4-0.1-2.9 0-1.4 0.1-2.8 0.3-1.4 0.2-2.8 0.5-1.4 0.3-2.7 0.8-1.1 0.4-2.1 0.9-1.1 0.4-2.1 1-1 0.5-1.9 1.1-1 0.6-1.9 1.2l-16.9 10.5q-1.1 0.5-2 1.2-0.9 0.8-1.5 1.8-0.7 1-1 2.1-0.3 1.1-0.3 2.3l-2.1 15.8c-0.5 4-1 8.2 0.8 11.8 1.4 3 4.3 5.1 6.6 7.5q1.4 1.5 2.6 3.1 1.2 1.6 2.1 3.4 0.9 1.8 1.5 3.7 0.7 1.9 1.1 3.9c1.2 6.6 0.4 14.5 5.6 18.7 2.8 2.3 6.7 2.7 10.3 3q3.7 0.2 7.5 0.2 3.7 0 7.4-0.1 3.7-0.1 7.4-0.5 3.7-0.3 7.4-0.8 0.6 0 1.2-0.1 0.6-0.1 1.1-0.3 0.6-0.2 1.1-0.4 0.6-0.2 1.1-0.4c1.8-1.1 2.9-3 3.9-4.7 3.8-6.5 7.7-13.3 7.7-20.7-0.1-3.7-1-7.7 0.8-10.9q0.3-0.5 0.7-1 0.3-0.5 0.7-1 0.4-0.5 0.8-1 0.4-0.5 0.8-0.9c2.2-3.1 2.6-7.1 3-10.8 1.1-12-0.1-21.2-8.9-29.6-8.3-7.9-20-11.6-31.3-11.6z"/>
	<path class="s3" d="m300.9 569.7l-33.6 170.8h16.8l32.2-168-15.4-2.8z"/>
	<path class="s3" d="m408.7 583.7l21 195.9h14l-12.6-201.5-22.4 5.6z"/>
	<path class="s3" d="m466.1 578.1l29.4 130.2h14l-28-133-15.4 2.8z"/>
	<path class="s3" d="m354.1 578.1l-4.2 103.6h11.2l8.4-103.6h-15.4z"/>
	<path class="s6" d="m277.1 551.5c0 0-22.4-149.8 40.6-154 63-4.1 152.6 0 152.6 0 0 0 51.8-4.1 36.4 154 0 0 14 46.2-112 42-126-4.2-117.6-42-117.6-42z"/>
	<path class="s6" d="m851 612.7c0 26.1-15.5 35.2-34.7 35.2-19.1 0-34.7-9.1-34.7-35.2 0-26.2 34.7-59.4 34.7-59.4 0 0 34.7 33.2 34.7 59.4z"/>
	<path class="s1" d="m815.4 622l14.8-27-14.7 23.6 0.1-9.8 10.2-19.6-10.1 17 0.3-17.7 10.9-15.6-10.9 12.8 0.2-32.4-1.1 41.1-11-16.9 10.9 20.4-1.1 19.7v-0.5l-12.8-17.9 12.8 19.7-0.2 2.5v0.2l-2.6 26.4h3.5l0.4-2.2 12.7-19.6-12.6 17.7 0.3-21.9z"/>
	<path class="s3" d="m838.5 704.5h-41.4l-10.7-60.3h60.4l-8.3 60.3z"/>
	<g id="Dossier 1">
		<path class="s1" d="m231 344v53.1h-86v-53.1z"/>
		<path id="Layer copy" class="s1" d="m231 344v53.1h-86v-53.1z"/>
		<path id="Layer copy 2" class="s7" d="m242 349.6v40.6h-15v-40.6z"/>
		<path id="Forme 1" class="s1" d="m236.5 391.3c-1.4 0-2.5-0.4-2.5-0.8 0-0.5 1.1-0.8 2.5-0.8 1.4 0 2.5 0.3 2.5 0.8 0 0.4-1.1 0.8-2.5 0.8z"/>
		<path id="Forme 1 copy" class="s1" d="m236.5 392.8c-1.4 0-2.5-0.3-2.5-0.7 0-0.5 1.1-0.8 2.5-0.8 1.4 0 2.5 0.3 2.5 0.8 0 0.4-1.1 0.7-2.5 0.7z"/>
		<path id="Forme 1 copy 2" class="s1" d="m236.5 393.9c-1.4 0-2.5-0.4-2.5-0.8 0-0.4 1.1-0.8 2.5-0.8 1.4 0 2.5 0.4 2.5 0.8 0 0.4-1.1 0.8-2.5 0.8z"/>
		<path id="Forme 1 copy 3" class="s1" d="m233.5 395c-1.4 0-2.5-0.4-2.5-0.8 0-0.5 1.1-0.8 2.5-0.8 1.4 0 2.5 0.3 2.5 0.8 0 0.4-1.1 0.8-2.5 0.8z"/>
		<path id="Forme 1 copy 4" class="s1" d="m230.5 395.5c-1.4 0-2.5-0.4-2.5-0.8 0-0.4 1.1-0.8 2.5-0.8 1.4 0 2.5 0.4 2.5 0.8 0 0.4-1.1 0.8-2.5 0.8z"/>
		<path class="s0" d="m217.7 352.2v36.7h-59.4v-36.7z"/>
		<path id="Layer copy 3" class="s1" d="m223 361.2v33.2h-70v-33.2z"/>
	</g>
	<g id="Dossier 2">
		<path id="Forme 2" class="s7" d="m167 367h10c0.6 0 1 0.4 1 1v2.6c0 0.6-0.4 1-1 1h-10c-0.6 0-1-0.4-1-1v-2.6c0-0.6 0.4-1 1-1z"/>
		<path id="Forme 2 copy" class="s7" d="m183 367h10c0.6 0 1 0.4 1 1v2.6c0 0.6-0.4 1-1 1h-10c-0.6 0-1-0.4-1-1v-2.6c0-0.6 0.4-1 1-1z"/>
		<path id="Forme 2 copy 2" class="s7" d="m199 367h10c0.6 0 1 0.4 1 1v2.6c0 0.6-0.4 1-1 1h-10c-0.6 0-1-0.4-1-1v-2.6c0-0.6 0.4-1 1-1z"/>
		<path id="Forme 2 copy 3" class="s7" d="m167 374.8h10c0.6 0 1 0.4 1 1v2.6c0 0.6-0.4 1-1 1h-10c-0.6 0-1-0.4-1-1v-2.6c0-0.6 0.4-1 1-1z"/>
		<path id="Forme 2 copy 4" class="s7" d="m183 374.8h10c0.6 0 1 0.4 1 1v2.6c0 0.6-0.4 1-1 1h-10c-0.6 0-1-0.4-1-1v-2.6c0-0.6 0.4-1 1-1z"/>
		<path id="Forme 2 copy 5" class="s7" d="m199 374.8h10c0.6 0 1 0.4 1 1v2.6c0 0.6-0.4 1-1 1h-10c-0.6 0-1-0.4-1-1v-2.6c0-0.6 0.4-1 1-1z"/>
		<path id="Forme 2 copy 6" class="s7" d="m199 381.6h10c0.6 0 1 0.4 1 1v2.6c0 0.6-0.4 1-1 1h-10c-0.6 0-1-0.4-1-1v-2.6c0-0.6 0.4-1 1-1z"/>
		<path id="Forme 2 copy 7" class="s7" d="m183 381.6h10c0.6 0 1 0.4 1 1v2.6c0 0.6-0.4 1-1 1h-10c-0.6 0-1-0.4-1-1v-2.6c0-0.6 0.4-1 1-1z"/>
		<path id="Forme 2 copy 8" class="s7" d="m167 381.6h10c0.6 0 1 0.4 1 1v2.6c0 0.6-0.4 1-1 1h-10c-0.6 0-1-0.4-1-1v-2.6c0-0.6 0.4-1 1-1z"/>
		<path id="Forme 2 copy 9" class="s7" d="m183 388.4h10c0.6 0 1 0.4 1 1v2.6c0 0.6-0.4 1-1 1h-10c-0.6 0-1-0.4-1-1v-2.6c0-0.6 0.4-1 1-1z"/>
	</g>
</svg>