<svg xmlns="http://www.w3.org/2000/svg" xmlns:xlink="http://www.w3.org/1999/xlink" id="a" width="75.1719" height="93.8963" viewBox="0 0 75.1719 93.8963"><defs><style>.e{fill:url(#d);}.f{fill:url(#c);}</style><linearGradient id="c" x1="0" y1="70.7006" x2="50.5995" y2="70.7006" gradientTransform="translate(0 95.9926) scale(1 -1)" gradientUnits="userSpaceOnUse"><stop offset="0" stop-color="#204297"></stop><stop offset="1" stop-color="#ef4043"></stop></linearGradient><linearGradient id="d" x1="15.2294" y1="70.7025" x2="35.3706" y2="70.7025" gradientTransform="translate(0 95.9926) scale(1 -1)" gradientUnits="userSpaceOnUse"><stop offset="0" stop-color="#204297"></stop><stop offset="1" stop-color="#ef4043"></stop></linearGradient></defs><g id="b"><path d="M71.1519,48.7663c-1.58-.63-3.28-.63-4.78-.05-.59-1.8-1.94-3.22-3.82-3.92-1.66-.62-3.42-.55-4.93,.12-.64-1.6-1.9-2.87-3.62-3.53-1.49-.57-3.06-.59-4.47-.11v-12.31c0-4.2-3.24-6.39-6.44-6.39s-6.44,2.2-6.44,6.39v31.64c0,.54-.14,.93-.35,.99-.21,.05-.63-.08-.89-.55-.31-.57-.62-1.17-.91-1.74-1.36-2.66-2.76-5.42-5.74-7.15-1.96-1.14-5.08-.87-6.95,.61-1.39,1.1-1.9,2.68-1.4,4.34,.19,.64,.39,1.29,.58,1.94,2.26,7.59,4.82,16.19,9.73,19.89,.24,.18,.51,.37,.82,.59,1.61,1.14,4.62,3.25,4.62,5.38v5.58c0,1.88,1.53,3.41,3.41,3.41h27.68c1.88,0,3.41-1.53,3.41-3.41v-4.02c0-1.54,.86-2.8,1.87-4.27,1.18-1.72,2.51-3.68,2.64-6.44v-21.03c0-2.68-1.53-4.95-4.01-5.94l-.01-.02Zm.94,26.86c-.1,1.87-1.07,3.3-2.11,4.81-1.13,1.65-2.4,3.51-2.4,6v4.02c0,.19-.16,.34-.34,.34h-27.68c-.19,0-.34-.16-.34-.34v-5.58c0-3.72-3.7-6.33-5.92-7.89-.29-.21-.55-.38-.74-.53-4.1-3.09-6.51-11.18-8.63-18.31-.2-.66-.39-1.31-.58-1.96-.11-.37-.09-.69,.36-1.05,.53-.42,1.4-.65,2.2-.65,.5,0,.97,.09,1.31,.29,2.2,1.28,3.34,3.52,4.55,5.89,.31,.6,.62,1.22,.96,1.83,.9,1.63,2.68,2.47,4.34,2.04,1.28-.33,2.66-1.54,2.66-3.96V28.9363c0-2.63,2.12-3.33,3.38-3.33s3.38,.7,3.38,3.33v26.17c0,.85,.69,1.53,1.53,1.53s1.53-.69,1.53-1.53v-10.42c1.09-.87,2.45-.82,3.36-.46,1.32,.51,2.11,1.67,2.11,3.11v11.31c0,.85,.69,1.53,1.53,1.53s1.53-.69,1.53-1.53v-10.45c1.09-.92,2.47-.89,3.41-.55,1.35,.5,2.15,1.67,2.15,3.12v10.02c0,.85,.69,1.53,1.53,1.53s1.53-.69,1.53-1.53v-8.8c1.09-.82,2.43-.75,3.32-.39,1.3,.52,2.08,1.67,2.08,3.09v20.92l-.01,.02Z"></path><path class="f" d="M50.3919,17.5963l-1.91-4.61c-.55-1.32-2.07-1.98-3.46-1.5l-4.26,1.48c-.92-1.16-1.97-2.21-3.13-3.13l1.48-4.26c.48-1.39-.18-2.91-1.5-3.46L32.9919,.2063c-1.32-.55-2.86,.06-3.51,1.39l-1.97,4.05c-1.47-.17-2.95-.17-4.43,0l-1.97-4.06c-.64-1.32-2.18-1.93-3.51-1.39l-4.61,1.91c-1.32,.55-1.98,2.07-1.5,3.46l1.48,4.26c-1.16,.92-2.21,1.97-3.13,3.13l-4.26-1.48c-1.39-.48-2.91,.18-3.46,1.5L.2119,17.5963c-.55,1.32,.06,2.87,1.39,3.51l4.05,1.97c-.17,1.47-.17,2.95,0,4.43l-4.06,1.97c-1.33,.64-1.94,2.18-1.39,3.51l1.91,4.61c.55,1.32,2.07,1.98,3.46,1.5l4.26-1.48c.92,1.16,1.97,2.21,3.13,3.13l-1.48,4.26c-.48,1.39,.18,2.91,1.5,3.46l4.62,1.91c.33,.14,.67,.2,1.01,.2,1.02,0,2.01-.59,2.5-1.59l1.97-4.05c1.47,.17,2.95,.17,4.43,0l1.97,4.06c.64,1.33,2.18,1.93,3.51,1.39,.78-.32,1.15-1.22,.83-2-.28-.68-.99-1.04-1.68-.93l-2.36-4.86c-.3-.62-.97-.96-1.64-.84-1.89,.33-3.8,.33-5.69,0-.67-.12-1.34,.23-1.64,.84l-2.34,4.82-3.99-1.65,1.76-5.07c.22-.65,0-1.36-.57-1.76-1.56-1.1-2.91-2.45-4.02-4.02-.39-.56-1.11-.79-1.76-.57l-5.07,1.76-1.65-3.99,4.83-2.34c.62-.3,.96-.97,.84-1.64-.33-1.89-.33-3.8,0-5.68,.12-.67-.23-1.34-.84-1.64l-4.82-2.34,1.65-3.99,5.07,1.76c.65,.22,1.36,0,1.76-.57,1.1-1.56,2.45-2.92,4.02-4.02,.56-.39,.79-1.11,.57-1.76l-1.76-5.07,3.99-1.65,2.34,4.83c.3,.62,.97,.96,1.64,.84,1.89-.33,3.8-.33,5.69,0,.67,.12,1.34-.23,1.64-.84l2.34-4.82,3.99,1.65-1.76,5.07c-.22,.65,0,1.36,.57,1.76,1.56,1.1,2.91,2.45,4.02,4.02,.39,.56,1.11,.79,1.76,.57l5.07-1.76,1.66,4.01c-.59,.43-.81,1.23-.48,1.91,.37,.76,1.29,1.08,2.05,.71,1.33-.64,1.93-2.18,1.39-3.51l-.01-.02Z"></path><path class="e" d="M29.1619,15.9863c-2.49-1.03-5.22-1.03-7.71,0-2.49,1.03-4.42,2.96-5.45,5.45-1.03,2.49-1.03,5.22,0,7.71s2.97,4.42,5.45,5.45c1.24,.51,2.55,.77,3.85,.77s2.61-.26,3.85-.77c5.13-2.12,7.58-8.03,5.45-13.16-1.03-2.49-2.97-4.42-5.45-5.45h.01Zm-1.17,15.78c-1.73,.72-3.63,.72-5.36,0-1.73-.72-3.07-2.06-3.79-3.79-.72-1.73-.72-3.63,0-5.36s2.06-3.07,3.79-3.79c.86-.36,1.77-.54,2.68-.54s1.82,.18,2.68,.54c1.73,.72,3.07,2.06,3.79,3.79,1.48,3.57-.22,7.67-3.79,9.15Z"></path></g></svg>