<svg xmlns="http://www.w3.org/2000/svg" xmlns:xlink="http://www.w3.org/1999/xlink" id="a" width="79.11" height="82.32" viewBox="0 0 79.11 82.32"><defs><style>.d{fill:url(#c);}</style><linearGradient id="c" x1="23" y1="64.94" x2="56.1612" y2="64.94" gradientTransform="translate(0 83.98) scale(1 -1)" gradientUnits="userSpaceOnUse"><stop offset="0" stop-color="#204297"></stop><stop offset="1" stop-color="#ef4043"></stop></linearGradient></defs><g id="b"><path d="M79.08,78.03v-.09c-.21-2.36-2.07-5.11-5.31-6.42,.25-.47,.46-.98,.62-1.55,1.49-.46,2.44-1.8,2.65-3.14,.23-1.47-.33-2.79-1.44-3.53-.39-4.8-4.07-7.31-7.72-7.31s-7.33,2.51-7.72,7.31c-1.11,.75-1.68,2.07-1.44,3.53,.21,1.33,1.16,2.68,2.65,3.14,.17,.58,.39,1.11,.65,1.59-3.15,1.32-4.96,4.05-5.16,6.38v3.03c0,.74,.6,1.35,1.35,1.35h19.55c.74,0,1.35-.6,1.35-1.35v-2.94h-.03Zm-17.71-11.62c-.06-.35-.01-.81,.52-.98,.55-.18,.92-.7,.92-1.28,0-3.78,2.54-5.47,5.06-5.47s5.06,1.69,5.06,5.47c0,.58,.37,1.1,.92,1.28,.53,.17,.57,.63,.52,.98-.06,.39-.36,1.04-1.1,1.04-.65,0-1.21,.47-1.33,1.11-.5,2.86-2.51,3.87-4.08,3.87s-3.58-1.01-4.08-3.87c-.11-.64-.67-1.11-1.32-1.11-.74,0-1.04-.65-1.1-1.04h.01Zm15.02,13.22h-16.86v-1.49c.17-1.64,1.81-3.66,4.34-4.38,1.21,.92,2.64,1.35,4,1.35,1.37,0,2.82-.45,4.04-1.39,2.61,.72,4.31,2.76,4.48,4.41v1.5Z"></path><path d="M22.23,77.94c-.21-2.36-2.07-5.11-5.31-6.42,.25-.47,.46-.98,.62-1.55,1.49-.46,2.44-1.8,2.65-3.14,.23-1.47-.33-2.79-1.44-3.53-.39-4.8-4.07-7.31-7.72-7.31s-7.33,2.51-7.72,7.31c-1.11,.75-1.68,2.07-1.44,3.53,.21,1.33,1.16,2.68,2.65,3.14,.17,.58,.39,1.11,.65,1.59-3.15,1.32-4.96,4.05-5.17,6.38v3.03c0,.74,.6,1.35,1.35,1.35H20.9c.74,0,1.35-.6,1.35-1.35v-3.03h-.02Zm-17.71-11.53c-.06-.35-.01-.81,.52-.98,.55-.18,.92-.7,.92-1.28,0-3.78,2.54-5.47,5.06-5.47s5.06,1.69,5.06,5.47c0,.58,.37,1.1,.92,1.28,.53,.17,.57,.63,.52,.98-.06,.38-.36,1.04-1.1,1.04-.65,0-1.21,.47-1.33,1.11-.5,2.86-2.51,3.87-4.08,3.87s-3.58-1.01-4.08-3.87c-.11-.64-.67-1.11-1.33-1.11-.74,0-1.04-.65-1.1-1.04h.02Zm15.02,13.22H2.69v-1.49c.17-1.64,1.81-3.66,4.34-4.38,1.21,.92,2.64,1.35,4,1.35s2.82-.45,4.04-1.39c2.61,.72,4.31,2.76,4.48,4.41v1.49l-.01,.01Z"></path><path d="M23.32,30.98H11.12c-.74,0-1.35,.6-1.35,1.35v16.88l-1.97-2.46c-.46-.58-1.31-.67-1.89-.21s-.67,1.31-.21,1.89l4.35,5.43s.05,.06,.08,.09,.05,.05,.08,.08c.24,.22,.55,.34,.88,.35h.02c.35,0,.64-.12,.87-.31,.06-.05,.11-.09,.15-.15,.02-.02,.03-.04,.05-.05l4.36-5.44c.46-.58,.37-1.43-.21-1.89s-1.43-.37-1.89,.21l-1.97,2.45v-15.53h10.67"></path><path d="M38.19,49.2l-1.97-2.45c-.46-.58-1.31-.67-1.89-.21-.58,.46-.67,1.31-.21,1.89l4.36,5.44s.03,.04,.05,.05c.04,.05,.09,.09,.14,.13,.24,.2,.53,.32,.84,.32h.04c.33,0,.61-.12,.84-.3,.07-.06,.14-.12,.19-.19l.02-.02,4.36-5.44c.46-.58,.37-1.43-.21-1.89-.58-.46-1.43-.37-1.89,.21l-1.97,2.45v-11.14h-2.69v11.14l-.01,.01Z"></path><path d="M73.16,46.54c-.58-.46-1.43-.37-1.89,.21l-1.97,2.46v-16.87c0-.74-.6-1.35-1.35-1.35h-12.54c-.08,.96,.17,1.81,.45,2.69h10.74v15.53l-1.97-2.45c-.46-.58-1.31-.67-1.89-.21-.58,.46-.67,1.31-.21,1.89l4.35,5.43s.04,.05,.06,.07c.04,.05,.08,.08,.12,.12,.23,.2,.53,.32,.85,.32h.01c.37,0,.66-.12,.88-.31,.06-.05,.1-.09,.15-.14,.02-.02,.03-.04,.05-.05l4.36-5.44c.46-.58,.37-1.43-.21-1.89l.01-.01Z"></path><path d="M50.66,78v-.05c-.2-2.36-2.07-5.12-5.31-6.43,.25-.47,.46-.98,.62-1.55,1.49-.46,2.44-1.8,2.65-3.14,.23-1.47-.33-2.79-1.44-3.53-.39-4.8-4.07-7.31-7.72-7.31s-7.33,2.51-7.72,7.31c-1.11,.75-1.68,2.07-1.44,3.53,.21,1.33,1.16,2.68,2.65,3.14,.17,.58,.39,1.11,.65,1.59-3.15,1.32-4.96,4.05-5.16,6.38v3.03c0,.74,.6,1.35,1.35,1.35h19.55c.74,0,1.35-.6,1.35-1.35v-2.98h0l-.03,.01Zm-17.71-11.59c-.06-.35-.01-.81,.52-.98,.55-.18,.92-.7,.92-1.28,0-3.78,2.54-5.47,5.06-5.47s5.06,1.69,5.06,5.47c0,.58,.37,1.1,.92,1.28,.53,.17,.57,.63,.52,.98-.06,.38-.36,1.04-1.1,1.04-.65,0-1.21,.47-1.33,1.11-.5,2.86-2.51,3.87-4.08,3.87s-3.58-1.01-4.08-3.87c-.11-.64-.67-1.11-1.33-1.11-.74,0-1.04-.65-1.1-1.04h.02Zm15.02,13.22H31.11v-1.49c.17-1.64,1.81-3.66,4.34-4.38,1.21,.92,2.64,1.35,4,1.35s2.82-.45,4.04-1.39c2.61,.72,4.31,2.76,4.48,4.41v1.5Z"></path><path class="d" d="M55.89,30.98h.03c-.76-2.63-3.74-3.97-6.41-5.16-1.45-.65-2.95-1.32-4.05-2.14v-1.38c.05-.06,.09-.12,.13-.19,.86-1.02,1.58-2.34,2.16-3.92,1.05-.15,1.96-.79,2.6-1.86,.55-.92,.86-2.11,.86-3.28,0-1.88-.77-3.29-2-3.85-.25-5.11-4.49-9.2-9.67-9.2s-9.42,4.08-9.67,9.2c-1.24,.56-2,1.97-2,3.85,0,2.38,1.28,4.84,3.46,5.15,.58,1.59,1.3,2.9,2.16,3.92,.04,.07,.08,.13,.13,.19v1.38c-1.1,.83-2.6,1.5-4.05,2.15-2.55,1.14-5.49,2.77-6.4,5.18-.1133,.3333-.17,1.2233-.17,2.67,.33,4.01,2.49,4.28,4.36,4.28h10.83v.11h2.69v-.11h10.83c2.39,0,4.16-1.78,4.33-4.28h0c.18-1,.18-1.67-.14-2.69l-.01-.02Zm-22.3-14.51c-.17-.56-.7-.95-1.28-.95h-.52c-.62,0-1.23-1.23-1.23-2.49,0-.36,.09-1.23,.45-1.4,5.95,2.38,10.25-.87,11.84-2.4,.54-.52,.55-1.37,.04-1.9-.52-.54-1.37-.55-1.9-.04-1.16,1.12-4.21,3.44-8.43,2.04,.17-3.7,3.24-6.66,6.98-6.66s6.99,3.13,6.99,6.99v.56c-.01,.36,.13,.72,.38,.98s.6,.41,.97,.41h.08c.48,0,.58,1.03,.58,1.42,0,1.26-.61,2.49-1.23,2.49h-.52c-.59,0-1.11,.38-1.28,.95-.59,1.89-1.39,3.38-2.32,4.3-.04,.04-.08,.09-.12,.14-1.01,.91-2.24,1.4-3.51,1.4s-2.5-.49-3.51-1.4c-.04-.05-.08-.09-.12-.14-.93-.93-1.73-2.42-2.32-4.3h-.02Zm19.83,15.87v1.22c0,.94-.76,1.7-1.7,1.7H27.36c-.94,0-1.7-.76-1.7-1.7v-1.24c0-1.69,1.89-2.66,5-4.05,1.85-.83,3.76-1.68,5.19-2.96,.29-.26,.45-.62,.45-1v-.02c1.02,.47,2.11,.72,3.24,.72s2.22-.25,3.24-.72v.02c0,.38,.16,.75,.45,1,1.43,1.28,3.34,2.13,5.19,2.96,3.1,1.39,4.99,2.35,5,4.03v.04Z"></path></g></svg>