<svg xmlns="http://www.w3.org/2000/svg" xmlns:xlink="http://www.w3.org/1999/xlink" id="a" width="81.12" height="84" viewBox="0 0 81.12 84"><defs><style>.e{fill:url(#d);}.f{fill:url(#c);}</style><linearGradient id="c" x1="8.74" y1="78.89" x2="22.95" y2="78.89" gradientTransform="translate(0 86) scale(1 -1)" gradientUnits="userSpaceOnUse"><stop offset="0" stop-color="#204297"></stop><stop offset="1" stop-color="#ef4043"></stop></linearGradient><linearGradient id="d" x1="27.63" y1="35.26" x2="53.48" y2="35.26" gradientTransform="translate(0 86) scale(1 -1)" gradientUnits="userSpaceOnUse"><stop offset="0" stop-color="#204297"></stop><stop offset="1" stop-color="#ef4043"></stop></linearGradient></defs><g id="b"><path class="f" d="M11.29,6.86c.02,.08,.03,.17,.03,.25,0,.34-.14,.68-.38,.91-.24,.24-.58,.38-.91,.38s-.67-.14-.91-.38c-.06-.06-.11-.13-.16-.2-.05-.07-.08-.15-.12-.22-.03-.08-.06-.16-.07-.24-.02-.08-.03-.17-.03-.25s0-.17,.03-.25c.02-.08,.04-.16,.07-.24s.07-.15,.12-.22c.05-.07,.1-.14,.16-.2,.24-.24,.58-.38,.91-.38s.67,.14,.91,.38c.06,.06,.11,.13,.16,.2,.05,.07,.08,.15,.12,.22,.03,.08,.06,.16,.07,.24Zm5.74-.24c-.03-.08-.07-.15-.12-.22-.05-.07-.1-.14-.16-.2-.24-.24-.58-.38-.91-.38s-.67,.14-.91,.38c-.06,.06-.11,.13-.16,.2-.05,.07-.08,.15-.12,.22-.03,.08-.06,.16-.07,.24-.02,.08-.03,.17-.03,.25,0,.34,.14,.67,.38,.91,.24,.24,.58,.38,.91,.38s.67-.14,.91-.38c.24-.24,.38-.58,.38-.91,0-.08,0-.17-.03-.25-.02-.08-.04-.16-.07-.24Zm5.82,0c-.03-.08-.07-.15-.12-.22-.05-.07-.1-.14-.16-.2-.24-.24-.58-.38-.91-.38s-.67,.14-.91,.38c-.06,.06-.11,.13-.16,.2-.05,.07-.08,.15-.12,.22-.03,.08-.06,.16-.07,.24-.02,.08-.03,.17-.03,.25s0,.17,.03,.25c.02,.08,.04,.16,.07,.24,.03,.08,.07,.15,.12,.22,.05,.07,.1,.14,.16,.2,.24,.24,.58,.38,.91,.38s.67-.14,.91-.38c.06-.06,.11-.13,.16-.2,.05-.07,.08-.15,.12-.22,.03-.08,.06-.16,.07-.24,.02-.08,.03-.17,.03-.25s0-.17-.03-.25c-.02-.08-.04-.16-.07-.24Z"></path><path class="e" d="M31.83,43.63c-2.32,0-4.2,1.88-4.2,4.2v8.73c0,.71,.58,1.29,1.29,1.29s1.29-.58,1.29-1.29v-3.07h3.23v3.07c0,.71,.58,1.29,1.29,1.29s1.29-.58,1.29-1.29v-8.73c0-2.32-1.88-4.2-4.2-4.2h.01Zm-1.62,7.27v-3.07c0-.89,.72-1.62,1.62-1.62s1.62,.72,1.62,1.62v3.07h-3.24Zm13.25-7.27h-2.91c-.71,0-1.29,.58-1.29,1.29v11.63c0,.71,.58,1.29,1.29,1.29s1.29-.58,1.29-1.29v-4.52h1.62c2.32,0,4.2-1.88,4.2-4.2s-1.88-4.2-4.2-4.2Zm0,5.82h-1.62v-3.23h1.62c.89,0,1.62,.72,1.62,1.62s-.72,1.62-1.62,1.62v-.01Zm8.73-5.82c.71,0,1.29,.58,1.29,1.29v11.63c0,.71-.58,1.29-1.29,1.29s-1.29-.58-1.29-1.29v-11.63c0-.71,.58-1.29,1.29-1.29Z"></path><path d="M40.56,30.54c-11.14,0-20.2,9.06-20.2,20.2s9.06,20.2,20.2,20.2,20.2-9.06,20.2-20.2-9.06-20.2-20.2-20.2Zm0,37.81c-9.71,0-17.61-7.9-17.61-17.61s7.9-17.61,17.61-17.61,17.61,7.9,17.61,17.61-7.9,17.61-17.61,17.61Z"></path><path d="M70.37,45.09h-.74c-.42,0-.78-.27-.86-.64-.73-3.27-2.01-6.35-3.81-9.18-.21-.33-.14-.77,.15-1.07l.53-.53c.66-.66,1.02-1.53,1.02-2.46s-.36-1.81-1.02-2.46l-3.07-3.07c-.66-.66-1.53-1.02-2.46-1.02s-1.81,.36-2.46,1.02l-.53,.53c-.29,.29-.74,.36-1.07,.15-2.83-1.8-5.91-3.08-9.18-3.81-.37-.08-.64-.44-.64-.86v-.99c0-1.84-1.31-3.24-3.04-3.24h-4.79c-1.92,0-3.48,1.56-3.48,3.48v.74c0,.42-.27,.78-.64,.86-3.27,.73-6.35,2.01-9.18,3.81-.33,.21-.77,.14-1.07-.15l-.53-.53c-.66-.66-1.53-1.02-2.46-1.02s-1.81,.36-2.46,1.02l-3.07,3.07c-.66,.66-1.02,1.53-1.02,2.46s.36,1.81,1.02,2.46l.53,.53c.3,.3,.36,.75,.15,1.08-1.8,2.82-3.08,5.91-3.8,9.17-.08,.37-.45,.64-.86,.64h-.74c-1.92,0-3.48,1.56-3.48,3.48v4.34c0,1.92,1.56,3.48,3.48,3.48h.74c.42,0,.78,.27,.86,.64,.73,3.27,2.01,6.35,3.81,9.18,.21,.33,.14,.77-.15,1.07l-.53,.53c-.66,.66-1.02,1.53-1.02,2.46s.36,1.81,1.02,2.46l3.07,3.07c1.36,1.36,3.57,1.36,4.93,0l.53-.53c.29-.29,.74-.36,1.07-.15,2.82,1.8,5.91,3.08,9.18,3.81,.37,.08,.64,.45,.64,.86v.74c0,1.92,1.56,3.48,3.48,3.48h4.35c1.92,0,3.48-1.56,3.48-3.48v-.74c0-.42,.27-.78,.64-.86,3.27-.73,6.35-2.01,9.18-3.81,.33-.21,.77-.14,1.07,.15l.53,.53c1.36,1.36,3.57,1.36,4.93,0l3.07-3.07c.66-.66,1.02-1.53,1.02-2.46s-.36-1.81-1.02-2.46l-.53-.53c-.29-.29-.36-.74-.15-1.07,1.8-2.82,3.08-5.91,3.81-9.18,.08-.37,.44-.64,.86-.64h.74c1.92,0,3.48-1.56,3.48-3.48v-4.35c0-1.92-1.56-3.48-3.48-3.48l-.03,.02Zm.9,7.83c0,.5-.4,.9-.9,.9h-.74c-1.62,0-3.04,1.12-3.38,2.67-.66,2.97-1.83,5.78-3.46,8.35-.85,1.34-.64,3.14,.5,4.28l.53,.53c.35,.35,.35,.92,0,1.27l-3.07,3.07c-.35,.35-.92,.35-1.27,0l-.53-.53c-1.14-1.14-2.95-1.36-4.28-.5-2.57,1.64-5.38,2.8-8.35,3.46-1.54,.34-2.67,1.77-2.67,3.38v.74c0,.5-.4,.9-.9,.9h-4.35c-.5,0-.9-.4-.9-.9v-.74c0-1.62-1.12-3.04-2.67-3.38-2.97-.66-5.78-1.83-8.35-3.46-.55-.35-1.18-.52-1.81-.52-.9,0-1.8,.35-2.48,1.02l-.53,.53c-.35,.35-.92,.35-1.27,0l-3.07-3.07c-.17-.17-.26-.39-.26-.63s.09-.47,.26-.64l.53-.53c1.14-1.14,1.35-2.95,.5-4.28-1.64-2.57-2.8-5.38-3.46-8.35-.34-1.54-1.77-2.67-3.38-2.67h-.74c-.5,0-.9-.4-.9-.9v-4.34c0-.5,.4-.9,.9-.9h.74c1.62,0,3.04-1.12,3.38-2.67,.66-2.97,1.83-5.78,3.46-8.35,.85-1.34,.64-3.15-.5-4.29l-.53-.53c-.35-.35-.35-.92,0-1.27l3.07-3.07c.35-.35,.92-.35,1.27,0l.53,.53c1.14,1.14,2.95,1.35,4.28,.5,2.57-1.64,5.38-2.8,8.35-3.46,1.54-.34,2.67-1.77,2.67-3.38v-.74c0-.5,.4-.9,.9-.9h4.79c.34,0,.45,.35,.45,.65v.99c0,1.62,1.12,3.04,2.66,3.38,2.97,.66,5.78,1.83,8.35,3.46,1.34,.85,3.14,.64,4.28-.5l.53-.53c.34-.34,.93-.34,1.27,0l3.07,3.07c.17,.17,.26,.39,.26,.63s-.09,.47-.26,.64l-.53,.53c-1.14,1.14-1.36,2.95-.5,4.28,1.64,2.57,2.8,5.38,3.46,8.35,.34,1.54,1.77,2.67,3.38,2.67h.74c.5,0,.9,.4,.9,.9v4.35h.03Z"></path><path d="M74.01,0H7.11C3.19,0,0,3.19,0,7.11V47.83c0,1.73,.63,3.4,1.78,4.7,.26,.29,.61,.44,.97,.44,.3,0,.61-.11,.86-.32,.54-.47,.59-1.29,.11-1.82-.73-.83-1.13-1.89-1.13-2.99V14.22H78.54V47.83c0,1.1-.4,2.17-1.13,2.99-.47,.54-.42,1.35,.11,1.82,.54,.47,1.35,.42,1.82-.11,1.15-1.3,1.78-2.97,1.78-4.7V7.11c0-3.92-3.19-7.11-7.11-7.11ZM2.59,11.63V7.11c0-2.49,2.03-4.52,4.52-4.52H74.01c2.49,0,4.52,2.03,4.52,4.52v4.52H2.59Z"></path></g></svg>