<svg xmlns="http://www.w3.org/2000/svg" xmlns:xlink="http://www.w3.org/1999/xlink" id="a" width="84.66" height="84.66" viewBox="0 0 84.66 84.66"><defs><style>.d{fill:url(#c);}</style><linearGradient id="c" x1="10.02" y1="51.405" x2="74.66" y2="51.405" gradientTransform="translate(0 86) scale(1 -1)" gradientUnits="userSpaceOnUse"><stop offset="0" stop-color="#204297"></stop><stop offset="1" stop-color="#ef4043"></stop></linearGradient></defs><g id="b"><path class="d" d="M70.37,26.3s-.04-.08-.06-.12-.05-.08-.08-.12c-2.81-4.8-6.83-8.82-11.63-11.63-.04-.03-.08-.05-.12-.08-.04-.02-.08-.04-.12-.06-4.73-2.71-10.2-4.27-16.03-4.27s-11.31,1.55-16.03,4.27l-.12,.06c-.04,.02-.08,.05-.12,.08-4.8,2.81-8.82,6.83-11.63,11.63-.03,.04-.05,.08-.08,.12l-.06,.12c-2.71,4.73-4.27,10.2-4.27,16.03s1.5,11.26,4.32,16.15c.26,.44,.72,.69,1.2,.69,.24,0,.48-.06,.7-.19l5.44-3.14c.66-.38,.89-1.23,.51-1.89s-1.23-.89-1.89-.51l-4.21,2.43c-1.95-3.76-3.06-7.92-3.26-12.17h4.86c.76,0,1.38-.62,1.38-1.38s-.62-1.38-1.38-1.38h-4.86c.2-4.37,1.36-8.49,3.26-12.17l4.21,2.43c.66,.38,1.51,.16,1.89-.51,.38-.66,.16-1.51-.51-1.89l-4.2-2.43c2.3-3.57,5.34-6.61,8.91-8.91l2.43,4.2c.38,.66,1.23,.89,1.89,.51s.89-1.23,.51-1.89l-2.43-4.21c3.68-1.91,7.8-3.06,12.17-3.26v4.86c0,.76,.62,1.38,1.38,1.38s1.38-.62,1.38-1.38v-4.86c4.37,.2,8.49,1.36,12.17,3.26l-2.43,4.21c-.38,.66-.16,1.51,.51,1.89,.66,.38,1.51,.16,1.89-.51l2.43-4.2c3.57,2.3,6.61,5.34,8.91,8.91l-4.2,2.43c-.66,.38-.89,1.23-.51,1.89s1.23,.89,1.89,.51l4.21-2.43c1.91,3.68,3.06,7.8,3.27,12.17h-4.86c-.76,0-1.38,.62-1.38,1.38s.62,1.38,1.38,1.38h4.86c-.2,4.25-1.31,8.41-3.26,12.17l-4.21-2.43c-.66-.38-1.51-.16-1.89,.51-.38,.66-.16,1.51,.51,1.89l5.44,3.14c.22,.13,.46,.19,.69,.19,.48,0,.95-.25,1.2-.69,2.83-4.89,4.32-10.48,4.32-16.15s-1.55-11.31-4.27-16.03h-.02Z"></path><path d="M42.33,4.94C21.71,4.94,4.94,21.71,4.94,42.33s16.77,37.39,37.39,37.39,37.39-16.77,37.39-37.39S62.95,4.94,42.33,4.94Zm0,72.01c-19.09,0-34.62-15.53-34.62-34.62S23.24,7.71,42.33,7.71s34.62,15.53,34.62,34.62-15.53,34.62-34.62,34.62Z"></path><path d="M72.26,12.4C64.27,4.4,53.64,0,42.33,0S20.39,4.4,12.4,12.4C4.4,20.39,0,31.02,0,42.33s4.4,21.94,12.4,29.93c8,8,18.63,12.4,29.93,12.4s21.94-4.4,29.93-12.4c8-8,12.4-18.62,12.4-29.93s-4.4-21.94-12.4-29.93Zm-29.93,69.49c-21.82,0-39.56-17.75-39.56-39.56S20.51,2.77,42.33,2.77s39.56,17.75,39.56,39.56-17.75,39.56-39.56,39.56Z"></path><path d="M59.55,23.15l-12.49,12.49c-1.34-.95-2.97-1.51-4.73-1.51-4.52,0-8.2,3.68-8.2,8.2s3.68,8.2,8.2,8.2,8.2-3.68,8.2-8.2c0-1.76-.56-3.4-1.51-4.73l12.49-12.49c.54-.54,.54-1.42,0-1.96s-1.42-.54-1.96,0Zm-17.22,24.61c-3,0-5.43-2.44-5.43-5.43s2.44-5.43,5.43-5.43,5.43,2.44,5.43,5.43-2.44,5.43-5.43,5.43Z"></path><path d="M53.48,56.3H31.17c-1.82,0-3.3,1.48-3.3,3.3v7.05c0,1.82,1.48,3.3,3.3,3.3h22.31c1.82,0,3.3-1.48,3.3-3.3v-7.05c0-1.82-1.48-3.3-3.3-3.3Zm.53,10.34c0,.29-.24,.53-.53,.53H31.17c-.29,0-.53-.24-.53-.53v-7.05c0-.29,.24-.53,.53-.53h22.31c.29,0,.53,.24,.53,.53v7.05Z"></path><path d="M42.33,38.5c-2.11,0-3.83,1.72-3.83,3.83s1.72,3.83,3.83,3.83,3.83-1.72,3.83-3.83-1.72-3.83-3.83-3.83Zm0,4.89c-.59,0-1.06-.48-1.06-1.06s.48-1.06,1.06-1.06,1.06,.48,1.06,1.06-.48,1.06-1.06,1.06Z"></path></g></svg>